<svg id="Ebene_1" data-name="Ebene 1" xmlns="http://www.w3.org/2000/svg" width="100" height="100" style="enable-background:new 0 0 500 500;"><defs><style>.cls-1{fill:#e3ebee;}.cls-2{fill:#fff;}.cls-3{fill:#b9cdd2;}</style></defs><title>Wolke1</title><path class="cls-1" d="M52.32,73.57A20.55,20.55,0,0,1,34,62.19a14.9,14.9,0,0,1-1.49.07h-.11a15.56,15.56,0,0,1-15.2-14.58A15.49,15.49,0,0,1,31.33,31.34,14.32,14.32,0,0,1,51.67,20.23a16.39,16.39,0,0,1,27.51,4,12.25,12.25,0,0,1,2.17-.19A12.53,12.53,0,0,1,93.87,36.21a12.55,12.55,0,0,1-.47,25.09h0a12.5,12.5,0,0,1-3.48-.49A16.3,16.3,0,0,1,65,69.17a20.48,20.48,0,0,1-12.65,4.4Z" transform="translate(-13.49 -7.78)"/><path class="cls-2" d="M64.16,14.95a15.9,15.9,0,0,1,14.72,9.88,11.7,11.7,0,0,1,2.47-.26h0a12,12,0,0,1,12,12v.15h0a12,12,0,1,1-3.81,23.47A15.8,15.8,0,0,1,65,68.54a19.94,19.94,0,0,1-30.68-6.89,14.25,14.25,0,0,1-1.78.11h-.12a15,15,0,0,1-.61-30,13.82,13.82,0,0,1,20-11,15.92,15.92,0,0,1,12.36-5.91m0-1a16.92,16.92,0,0,0-12.62,5.67A14.82,14.82,0,0,0,30.89,30.88a16,16,0,0,0-14.2,16.82A16.06,16.06,0,0,0,32.37,62.76h.13c.4,0,.79,0,1.19,0A21.06,21.06,0,0,0,52.32,74.07,21,21,0,0,0,65,69.79a16.65,16.65,0,0,0,9.38,2.87A16.81,16.81,0,0,0,90.25,61.4a13,13,0,1,0,4.1-25.67,13,13,0,0,0-13-12.17,12.82,12.82,0,0,0-1.89.14,16.84,16.84,0,0,0-15.32-9.75Z" transform="translate(-13.49 -7.78)"/><path class="cls-3" d="M100.45,39c2.73,2.78.8,9.07-1.08,11.11-3.69,4-10.47,3.1-13.19,2.52-.74-.16-.85-.1-1.1,0s-.31.34-.55.83a13,13,0,0,1-7.91,7c-5,1.53-9.67-.78-11.87-2.17-.83-.53-.87-.54-1.24-.53a2.28,2.28,0,0,0-1.21.64A19.93,19.93,0,0,1,48.8,62.37a15.36,15.36,0,0,1-12.12-6.79c-.26-.42-.53-.76-.85-.8s-.78.34-1.08.65c-2.92,2.84-12.1,3.69-15.14-1.15a15.16,15.16,0,0,0,12.79,7.48,14.25,14.25,0,0,0,1.9-.11A19.95,19.95,0,0,0,65,68.54,15.8,15.8,0,0,0,89.6,60.17a12,12,0,0,0,15.82-11.43A12.28,12.28,0,0,0,100.45,39Z" transform="translate(-13.49 -7.78)"/><path class="cls-1" d="M26.93,68.07A7.7,7.7,0,0,1,20.16,64h-.34a5.88,5.88,0,0,1-.7-11.71,5.46,5.46,0,0,1,7.5-4.08A6.2,6.2,0,0,1,36.76,49.7a4.64,4.64,0,0,1,.58,0A4.82,4.82,0,0,1,42.15,54a4.85,4.85,0,0,1,1.05.22,4.82,4.82,0,0,1-1.52,9.4h0a4.79,4.79,0,0,1-1-.11,6.17,6.17,0,0,1-9.15,3,7.71,7.71,0,0,1-1.28.77A7.6,7.6,0,0,1,26.93,68.07Z" transform="translate(-13.49 -7.78)"/><path class="cls-2" d="M31.18,46.71a5.71,5.71,0,0,1,5.28,3.55,4.2,4.2,0,0,1,.89-.09h0a4.31,4.31,0,0,1,4.31,4.3v.05h0a4.32,4.32,0,1,1-1.37,8.43,5.67,5.67,0,0,1-8.84,3,7.16,7.16,0,0,1-11-2.47,5.11,5.11,0,0,1-.64,0h0a5.38,5.38,0,0,1-.22-10.75,5,5,0,0,1,7.19-3.93,5.72,5.72,0,0,1,4.44-2.12m0-1a6.71,6.71,0,0,0-4.7,1.92,6,6,0,0,0-7.79,4.23,6.38,6.38,0,0,0-5.2,6.64,6.41,6.41,0,0,0,6.26,6h.12a8.21,8.21,0,0,0,7.06,4.06,8.17,8.17,0,0,0,4.57-1.41,6.61,6.61,0,0,0,3.34.9,6.68,6.68,0,0,0,6.1-4,5.32,5.32,0,0,0,1.65-10.52,5.32,5.32,0,0,0-5.24-4.44h-.3a6.68,6.68,0,0,0-5.87-3.46Z" transform="translate(-13.49 -7.78)"/><path class="cls-3" d="M44.21,55.34c1,1,.29,3.26-.39,4-1.33,1.45-3.76,1.11-4.73.9-.26-.06-.31,0-.39,0s-.11.12-.2.3a4.66,4.66,0,0,1-2.84,2.52,5.28,5.28,0,0,1-4.26-.78c-.3-.19-.31-.19-.45-.19a.82.82,0,0,0-.43.23,7.15,7.15,0,0,1-4.85,1.41,5.51,5.51,0,0,1-4.35-2.44c-.09-.15-.19-.27-.31-.29s-.28.12-.39.23c-1,1-4.34,1.33-5.43-.41a5.44,5.44,0,0,0,4.59,2.69,5.12,5.12,0,0,0,.68,0,7.16,7.16,0,0,0,11,2.47,5.67,5.67,0,0,0,8.84-3A4.32,4.32,0,0,0,46,58.84,4.41,4.41,0,0,0,44.21,55.34Z" transform="translate(-13.49 -7.78)"/><path class="cls-1" d="M83.93,49.24a14.29,14.29,0,0,1-12.7-7.81c-.31,0-.62,0-.93,0a10.8,10.8,0,0,1-.94-21.56,10,10,0,0,1,14.08-7.68,11.43,11.43,0,0,1,19,2.78,8.57,8.57,0,0,1,1.4-.12,8.77,8.77,0,0,1,8.75,8.36,8.78,8.78,0,0,1-.47,17.55h0a8.75,8.75,0,0,1-2.29-.3,11.28,11.28,0,0,1-1.66,3.19,11.42,11.42,0,0,1-9.13,4.59,11.26,11.26,0,0,1-6.46-2A14.32,14.32,0,0,1,90,47.87,14.09,14.09,0,0,1,83.93,49.24Z" transform="translate(-13.49 -7.78)"/><path class="cls-2" d="M92.06,8.78a10.93,10.93,0,0,1,10.12,6.79,8,8,0,0,1,1.7-.18h0a8.26,8.26,0,0,1,8.26,8.24v.1h0a8.28,8.28,0,1,1-2.62,16.14,10.86,10.86,0,0,1-16.93,5.75,13.71,13.71,0,0,1-21.09-4.73A9.8,9.8,0,0,1,70.3,41h-.08a10.3,10.3,0,0,1-.42-20.59,9.5,9.5,0,0,1,13.76-7.53,10.95,10.95,0,0,1,8.5-4.06m0-1h0a11.95,11.95,0,0,0-8.76,3.84,10.5,10.5,0,0,0-14.38,7.83,11.31,11.31,0,0,0-9.8,11.87A11.35,11.35,0,0,0,70.2,42h.1l.64,0a14.79,14.79,0,0,0,13,7.79,14.74,14.74,0,0,0,8.72-2.87,11.75,11.75,0,0,0,6.44,1.9,11.87,11.87,0,0,0,11.11-7.68,9.28,9.28,0,1,0,2.91-18.3,9.27,9.27,0,0,0-9.22-8.39,9.15,9.15,0,0,0-1.11.07A11.89,11.89,0,0,0,92.06,7.78Z" transform="translate(-13.49 -7.78)"/><path class="cls-3" d="M117,25.31c1.88,1.91.55,6.24-.74,7.64-2.54,2.78-7.2,2.13-9.07,1.73-.51-.11-.59-.07-.75,0s-.21.23-.38.57a8.93,8.93,0,0,1-5.44,4.83c-3.42,1.05-6.65-.53-8.16-1.49-.57-.36-.6-.37-.85-.37a1.57,1.57,0,0,0-.83.44,13.7,13.7,0,0,1-9.29,2.69,10.56,10.56,0,0,1-8.33-4.67c-.18-.29-.37-.53-.59-.55s-.53.23-.74.44c-2,2-8.32,2.54-10.41-.79A10.42,10.42,0,0,0,70.23,41a9.8,9.8,0,0,0,1.3-.08,13.71,13.71,0,0,0,21.09,4.73,10.86,10.86,0,0,0,16.93-5.75A8.27,8.27,0,0,0,120.43,32,8.44,8.44,0,0,0,117,25.31Z" transform="translate(-13.49 -7.78)"/></svg>