<svg id="Ebene_1" data-name="Ebene 1" width="100" height="100" style="enable-background:new 0 0 500 500;" xmlns="http://www.w3.org/2000/svg" ><defs><style>.cls-1{fill:#b9cdd2;stroke:#fff;}.cls-1,.cls-2{stroke-miterlimit:10;}.cls-2{fill:none;stroke:#218ccd;stroke-linecap:round;stroke-width:2px;}</style></defs><title>Wolke1_Regen</title><path class="cls-1" d="M89.87,28.86h0v-.15a12,12,0,0,0-12-12,11.7,11.7,0,0,0-2.49.26A15.9,15.9,0,0,0,48.3,13a13.82,13.82,0,0,0-20,11,15,15,0,0,0,.61,30,14.25,14.25,0,0,0,1.9-.11A19.95,19.95,0,0,0,61.46,60.7a15.8,15.8,0,0,0,24.63-8.37,12,12,0,1,0,3.78-23.47Z" transform="translate(-13.66 -0.45)"/><path class="cls-1" d="M108.65,15.9h0v-.1a8.26,8.26,0,0,0-8.26-8.24,8,8,0,0,0-1.71.18A10.93,10.93,0,0,0,80.07,5,9.5,9.5,0,0,0,66.3,12.54a10.3,10.3,0,0,0,.42,20.59,9.8,9.8,0,0,0,1.3-.08,13.71,13.71,0,0,0,21.09,4.73A10.86,10.86,0,0,0,106,32a8.28,8.28,0,1,0,2.6-16.14Z" transform="translate(-13.66 -0.45)"/><line class="cls-2" x1="50.65" y1="36.68" x2="41.9" y2="45.9"/><line class="cls-2" x1="76.09" y1="41.64" x2="67.34" y2="50.85"/><line class="cls-2" x1="59.32" y1="45.35" x2="50.57" y2="54.56"/><line class="cls-2" x1="19.82" y1="60.35" x2="11.07" y2="69.56"/><line class="cls-2" x1="48.74" y1="64.62" x2="39.99" y2="73.84"/><line class="cls-2" x1="31.32" y1="68.85" x2="22.57" y2="78.06"/></svg>