<?xml version="1.0" encoding="utf-8"?>
<svg version="1.1" id="Ebene_1" xmlns="http://www.w3.org/2000/svg" xmlns:xlink="http://www.w3.org/1999/xlink" x="0px" y="0px"
	 viewBox="0 0 960 116.5" style="enable-background:new 0 0 960 116.5;" xml:space="preserve">
<style type="text/css">
	.st1 {
		fill: rgba(0, 0, 0, 0.4);
	}
</style>
<path class="st1" d="M0,116.5V72.1c0,0,4.8,0,7,6.6c0,0,32.4-32.1,68.5,1.5c5.3-34.2,54.3-39.1,71-19.7
	c3.3-8.6,21.7-8.3,25.5,0c1.8-5.3,11.2-7.6,15.3-1.5c-0.4-12.8,19.5-21.8,33.3-10.8c0.3-9.7,13.6-14.6,19.8-8.3
	c-2.3-13.9,14.1-29.4,31-23.4c4.3-19.8,43.8-23,53.8-3.8c10.1-17,34.9-16.5,42.9,3.7c16.6-9.6,36.5,3.8,36,23.5
	c23.9-25.4,90.3-24.5,98.8,21.4c13.2-9.6,33.6-2.6,32.7,16.3c5.7-6.1,16.7-5.8,20,4c8.8-21,45.2-12.8,46.8,5.2
	c6.7-16.2,58-39.8,89.7-20.2c22-21.8,80.3-25.4,92.7-16.1c12.5-15.5,75.3-37.8,104.3-2C908,34.8,954,41.8,960,55.5v61H0z"/>
</svg>
