<?xml version="1.0" encoding="utf-8"?>
<svg version="1.1" id="Ebene_1" xmlns="http://www.w3.org/2000/svg" xmlns:xlink="http://www.w3.org/1999/xlink" x="0px" y="0px"
	 viewBox="0 0 960 87.2" style="enable-background:new 0 0 960 87.2;" xml:space="preserve">
<style type="text/css">
	.st0 {
		fill: #222222;
	}
</style>
<path class="st0" d="M0,48.7c0,0,34.3-0.7,38.7,32.5c15.5-23.5,53.2-23.3,70-1.7c3.7-14.2,25-18.8,34.2-8.7
	c4.5-28.9,57.7-45.2,79.5-21.8c20.2-30.7,78.7-27.8,93.2,7.7c9.6-10.4,29-6.7,33.3,5.8c15.7-21,68.3-13,76,9.7
	c16-15,44-8.5,49.6,11.3c5.6-9.8,28.2-9.1,34.6,1.8c6.8-20.1,35.7-22.8,46.6-4.2c3.5-8.1,14.4-9.5,19.9-3.6
	c1-17.1,19.3-25.4,33.2-15.1c8.6-47,70.2-54.2,99-23.2c0.8-19.3,18.3-30.8,37-22.5c5.8-19.2,30.8-20.2,40.7-4
	c11.5-17.8,46.2-17.3,53.8,4.5c15.5-7.2,33.2,7.5,30.5,21.5c9-4.8,20.1-0.4,21.7,9.5c12.4-9,29-3.6,32.4,10.8
	c4.4-4.3,12.8-2.3,13.5,2c3.6-6.5,17.8-8.7,22.8-4v30.2H0V48.7z"/>
</svg>
